,
  Hottest scene tracker on the net !!!   http://www.scenetime.com
 
         Please seed back after your download is completed

           Credit goes  to all seeders and  http://www.scenetime.com
 



...................................NFO:.................................................
                                                     
                                                   
                                                         
                                                          
                                                           
                                                          
                                                          
                                                          
                                                           
                                                         
                                                          
                                                        
                                                      
                                     
                                                 
                                                   
                                             
                                              
                                                     
                                                      
                                                      
                                                      
                                                    
                                                     
                                                   
                                                     
                                                     
                                                      
                                                     
                                                      
                                                    
                 ARTiCHOKE                        
                                                
                      
                                                        
                                                      
                                                      
                                               
                                          
                                                   
                                            
                                                    
                                                       
                                                        
                                                      
                                                
                                                        
                                                 
                                              
                                                  
                                                
                                                  
                                        

      
                                
      SPRiNTER proudly presents...     
                                
      
 
Cousin.Bette.1971.Part.I.Poor.Relations.DVDRip.XViD-SPRiNTER 
http://www.imdb.com/title/tt0068062/


Date: 2010.10
Genre: Drama


Plot: Set in Paris, Gareth Davies's film of tragic jealousy and vengeance follows aging spinster Bette (Margaret Tyzack), whose less-than-exciting life causes her such 
	bitterness toward her prosperous relatives that she eventually vows to destroy them. The crowning blow comes when she suffers unbearable humiliation at the hands of 
	her cousin. Colin Baker, Margaret Boyd and Helen Mirren round out the cast of this 1971 adaptation of a Balzac novel. 

  	Margaret Tyzack  ...  Bette (5 episodes, 1971)  
  	Colin Baker  ...  Count Wenceslas Steinbock (5 episodes, 1971)  
  	Helen Mirren  ...  Valerie (5 episodes, 1971)  
  	Ursula Howells  ...  Adeline (5 episodes, 1971)  
  	Thorley Walters  ...  Baron Hector Hulot (5 episodes, 1971)  
  	John Bryans  ...  Crevel (5 episodes, 1971)  
  	Davyd Harries  ...  Victorin (5 episodes, 1971)  
  	Harriet Harper  ...  Hortense (5 episodes, 1971)  



      
                 
      Release notes     
                 
      

     Variable frame rate - left at source fps.


      
           
     Greetings    
           
      


NTX aAF FiCO HNR CiNEFiLE AEN HUMANiSM SSF


      
           
      Details     
           
      

Format                           : AVI
Format/Info                      : Audio Video Interleave
File size                        : 696 MiB
Duration                         : 43mn 48s
Overall bit rate                 : 2 220 Kbps
Writing application              : Nandub v1.0rc2
Writing library                  : Nandub build 1852/release

Video
ID                               : 0
Format                           : MPEG-4 Visual
Format profile                   : AdvancedSimple@L5
Format settings, BVOP            : No
Format settings, QPel            : No
Format settings, GMC             : No warppoints
Format settings, Matrix          : Default (H.263)
Codec ID                         : XVID
Codec ID/Hint                    : XviD
Duration                         : 43mn 48s
Bit rate                         : 2 136 Kbps
Width                            : 512 pixels
Height                           : 384 pixels
Display aspect ratio             : 4:3
Frame rate                       : 29.970 fps
Resolution                       : 24 bits
Colorimetry                      : 4:2:0
Scan type                        : Progressive
Bits/(Pixel*Frame)               : 0.362
Stream size                      : 669 MiB (96%)
Writing library                  : XviD 1.2.1 (UTC 2008-12-04)

Audio
ID                               : 1
Format                           : MPEG Audio
Format version                   : Version 1
Format profile                   : Layer 3
Codec ID                         : 55
Codec ID/Hint                    : MP3
Duration                         : 43mn 48s
Bit rate mode                    : Variable
Bit rate                         : 70.2 Kbps
Channel(s)                       : 1 channel
Sampling rate                    : 48.0 KHz
Resolution                       : 16 bits
Stream size                      : 22.0 MiB (3%)
Alignment                        : Aligned on interleaves
Interleave, duration             : 24 ms (0.72 video frame)
Interleave, preload duration     : 330 ms
Writing library                  : LAME3.89 (alpha)